<?xml version="1.0" standalone="no"?>
<!DOCTYPE svg PUBLIC "-//W3C//DTD SVG 20010904//EN"
 "http://www.w3.org/TR/2001/REC-SVG-20010904/DTD/svg10.dtd">
<svg version="1.0" xmlns="http://www.w3.org/2000/svg"
 width="1280.000000pt" height="640.000000pt" viewBox="0 0 1280.000000 640.000000"
 preserveAspectRatio="xMidYMid meet">
<g transform="translate(0.000000,640.000000) scale(0.100000,-0.100000)"
fill="#000000" stroke="none">
<path d="M6676 4724 c-8 -154 -14 -202 -46 -344 -20 -88 -33 -120 -44 -109 -2
2 -10 60 -17 129 l-14 125 -6 -65 c-4 -36 -14 -87 -23 -114 -9 -27 -14 -52
-11 -54 3 -3 5 0 5 6 0 7 5 12 11 12 8 0 10 -33 7 -107 -3 -97 -7 -113 -32
-155 -28 -48 -43 -64 -52 -55 -4 3 36 210 52 272 3 11 -15 -16 -41 -60 -46
-80 -80 -123 -90 -114 -2 3 -26 89 -51 192 -26 103 -48 186 -50 184 -2 -1 9
-98 24 -215 18 -150 23 -219 17 -238 -21 -58 -32 -36 -44 83 -11 115 -59 424
-67 432 -2 2 -1 -94 3 -214 6 -197 5 -219 -11 -230 -13 -10 -14 -18 -6 -40 12
-32 -3 -183 -21 -199 -7 -8 -18 -2 -35 19 -20 25 -24 41 -24 102 0 49 6 86 20
118 11 26 19 59 19 73 -1 21 -2 23 -6 7 -14 -59 -43 -36 -43 35 0 54 -38 382
-45 388 -7 7 -8 -24 -5 -190 1 -91 -2 -148 -8 -148 -12 0 -35 94 -35 147 0 26
-4 41 -11 40 -7 -1 -13 42 -16 138 -5 130 -6 135 -13 75 -16 -129 -22 -140
-51 -98 -21 29 -20 24 5 -41 18 -48 19 -60 8 -103 -6 -28 -16 -47 -22 -45 -7
2 -30 45 -51 95 -30 68 -43 88 -49 76 -6 -10 -4 -19 6 -27 25 -19 58 -145 64
-243 6 -102 -4 -158 -49 -274 -29 -73 -43 -98 -52 -89 -6 6 12 538 20 574 4
20 3 27 -4 20 -5 -5 -15 -45 -21 -89 -14 -100 -80 -374 -91 -381 -5 -3 -11 18
-14 47 -8 75 -21 347 -18 383 1 17 -2 44 -6 60 -8 25 -10 12 -17 -66 -6 -87
-11 -104 -49 -175 -61 -115 -68 -111 -95 48 -12 73 -28 158 -36 188 l-14 55 5
-97 c6 -98 -13 -208 -36 -208 -12 0 -16 20 -32 165 -15 134 -12 150 -26 -170
l-7 -170 -40 -65 c-36 -59 -40 -63 -43 -38 -2 15 1 44 7 64 20 71 3 45 -42
-68 -26 -65 -51 -113 -58 -113 -8 0 -24 20 -38 43 l-24 44 12 162 c6 89 11
179 10 201 l0 40 -17 -50 -17 -50 -6 210 c-12 399 -11 396 -34 120 -17 -208
-42 -385 -55 -399 -14 -14 -33 7 -63 66 -18 37 -34 102 -52 213 -15 88 -29
162 -32 165 -6 6 7 -362 14 -373 6 -10 -6 -47 -16 -47 -10 0 -41 66 -41 88 0
9 -5 24 -10 32 -7 10 -9 -2 -8 -40 1 -34 -7 -82 -22 -125 -24 -75 -37 -98 -51
-89 -5 2 -11 -8 -15 -23 -19 -86 -29 -84 -44 10 -7 39 -27 155 -46 257 -34
181 -51 243 -39 145 13 -111 25 -349 25 -496 0 -128 -3 -159 -15 -169 -9 -7
-18 -10 -22 -6 -3 3 -10 59 -15 124 -4 64 -15 185 -23 267 -8 83 -12 160 -8
173 3 13 1 33 -5 45 -6 12 -15 49 -20 82 -9 54 -10 47 -11 -72 -1 -137 -13
-194 -51 -238 -10 -11 -23 -44 -29 -73 -13 -62 -49 -138 -60 -126 -4 5 -15 61
-24 124 -22 149 -78 420 -88 420 -15 0 -22 -62 -8 -71 17 -10 26 -139 10 -139
-19 0 -43 49 -39 80 4 23 2 27 -9 19 -7 -6 -18 -9 -25 -6 -10 3 -14 -12 -15
-57 -3 -89 -53 -196 -53 -114 -1 45 -14 20 -29 -52 -6 -31 -21 -72 -34 -92
-30 -49 -128 -158 -142 -158 -7 0 -17 35 -25 88 -12 81 -28 143 -29 115 -2
-31 -21 -9 -37 41 -16 51 -16 57 -1 98 21 54 21 83 1 46 -8 -16 -21 -28 -28
-28 -8 0 -19 12 -25 28 -10 25 -11 25 -7 2 15 -86 15 -96 2 -114 -19 -24 -31
-15 -62 46 -24 47 -26 60 -24 172 3 161 1 260 -4 255 -3 -2 -10 -60 -16 -129
-12 -132 -22 -158 -46 -126 -20 28 -17 6 6 -47 14 -31 18 -52 12 -68 l-9 -22
-16 24 c-9 13 -17 35 -17 50 0 15 -6 32 -14 39 -8 6 -27 43 -42 81 -15 38 -29
67 -31 65 -2 -2 15 -69 37 -149 38 -137 44 -197 19 -197 -5 0 -9 -43 -9 -95 0
-98 -21 -175 -47 -175 -7 0 -13 -4 -13 -10 0 -19 -15 -9 -39 25 -34 50 -37 37
-7 -24 27 -53 32 -71 17 -71 -5 0 -15 15 -22 33 -7 17 -25 43 -39 57 -14 14
-37 41 -52 60 -21 27 -15 7 27 -83 30 -64 55 -120 55 -123 0 -13 -124 -154
-133 -151 -5 1 -23 36 -39 76 l-29 73 21 117 c12 64 27 126 35 137 8 12 13 30
13 40 -1 11 5 50 12 87 12 56 12 70 1 76 -11 7 -11 25 -2 91 14 103 14 100 -2
100 -14 0 -25 111 -28 279 l-2 66 -8 -60 c-4 -33 -12 -118 -17 -188 -5 -71
-14 -133 -19 -138 -6 -6 -17 6 -28 33 -21 48 -98 169 -117 186 -7 6 8 -33 35
-86 59 -121 70 -182 57 -318 -12 -121 -46 -304 -59 -317 -12 -12 -12 -11 -61
136 -23 71 -44 127 -46 125 -2 -2 5 -69 16 -148 36 -282 26 -371 -21 -180 -36
148 -38 149 -33 20 4 -76 2 -110 -4 -100 -17 26 -92 237 -92 258 0 11 9 42 21
69 27 61 69 202 68 228 0 11 -10 -7 -23 -40 -39 -100 -92 -195 -110 -195 -4 0
-5 8 -2 18 9 27 -19 178 -51 277 -18 56 -43 108 -67 139 -20 27 -47 67 -58 90
-12 23 -39 70 -61 105 -33 51 -42 60 -49 47 -9 -16 10 -57 53 -114 9 -12 20
-49 24 -82 9 -75 9 -74 -4 -78 -6 -2 -24 23 -39 56 -16 33 -52 90 -81 126 -53
66 -78 88 -47 41 9 -13 32 -54 52 -90 l36 -66 -32 -85 c-31 -78 -45 -102 -55
-92 -2 2 -14 67 -25 143 -12 77 -24 142 -26 144 -2 2 -1 -99 2 -225 6 -226 6
-230 -18 -288 -13 -33 -29 -61 -35 -63 -23 -8 -33 64 -34 236 -2 178 -4 179
-25 13 -3 -27 -10 -42 -17 -39 -23 7 -66 139 -67 201 0 48 -2 56 -14 47 -18
-15 -26 -4 -70 94 -19 44 -35 73 -36 65 0 -8 9 -71 20 -140 24 -154 25 -190 5
-190 -17 0 -17 0 -76 155 -23 61 -45 114 -49 118 -4 5 12 -69 36 -165 24 -95
44 -181 44 -192 0 -23 -97 -156 -115 -156 -8 0 -30 49 -55 120 -24 66 -45 119
-47 117 -2 -3 6 -47 17 -98 42 -185 43 -199 24 -220 -9 -10 -21 -19 -25 -19
-15 0 -35 53 -79 208 -24 84 -44 151 -46 149 -2 -2 1 -30 6 -63 12 -75 13
-134 1 -134 -5 0 -26 20 -46 44 -54 66 -65 120 -65 336 -1 244 -13 314 -24
139 -5 -70 -12 -132 -16 -140 -12 -18 -29 -2 -77 71 -35 55 -67 84 -43 41 5
-11 10 -29 10 -40 0 -12 7 -21 14 -21 16 0 70 -105 81 -158 5 -24 3 -33 -9
-38 -12 -4 -13 -11 -5 -31 11 -30 2 -110 -14 -120 -6 -3 -23 9 -39 28 -28 33
-29 36 -27 141 4 188 -6 147 -38 -152 -8 -78 -16 -90 -39 -55 -16 24 -20 53
-23 175 -2 88 -6 137 -11 125 -5 -11 -9 -32 -9 -47 -1 -15 -6 -39 -13 -55 -6
-15 -10 -53 -9 -83 2 -52 -11 -92 -24 -78 -15 15 -22 78 -14 132 4 32 4 68 0
79 -7 20 -8 19 -15 -6 -9 -37 -23 -26 -40 31 -20 63 -19 29 0 -100 26 -166 5
-209 -42 -85 -14 39 -33 88 -41 107 -14 34 -15 34 -24 12 -5 -13 -13 -21 -17
-18 -5 3 -24 45 -43 93 -24 65 -34 82 -37 64 -2 -13 5 -51 17 -85 37 -113 53
-202 42 -238 -29 -97 -66 -178 -80 -178 -5 0 -14 7 -21 15 -11 13 -9 32 8 103
11 48 23 114 26 147 l6 60 -26 -85 c-26 -85 -41 -116 -53 -104 -3 3 -11 27
-17 52 l-12 47 -1 -41 c0 -22 -6 -45 -11 -50 -8 -8 -7 -19 1 -37 13 -29 5 -62
-12 -51 -9 5 -11 -4 -7 -33 9 -62 -45 -165 -71 -137 -5 5 -20 65 -35 134 -14
69 -32 145 -40 170 -15 44 -15 43 -9 -57 4 -73 2 -103 -6 -103 -15 0 -79 89
-87 120 -17 68 -115 405 -119 409 -9 8 -5 -24 15 -135 11 -61 19 -126 18 -145
0 -19 4 -45 11 -57 7 -14 14 -82 17 -170 5 -170 -2 -159 -41 73 -15 88 -38
193 -51 234 -13 40 -24 98 -24 127 0 31 -4 54 -10 54 -6 0 -17 15 -25 33 -17
38 -17 27 -1 -78 9 -63 9 -98 -1 -165 -26 -180 -35 -220 -48 -220 -17 0 -64
82 -100 173 -20 49 -32 67 -46 67 -21 0 -18 -14 25 -98 20 -40 52 -150 80
-274 9 -41 -17 -24 -75 49 -34 43 -64 80 -67 83 -8 9 18 -41 79 -146 33 -56
59 -113 59 -128 0 -38 -39 -188 -53 -205 -7 -8 -11 -22 -9 -32 3 -18 -44 -185
-57 -204 -4 -5 -13 -30 -20 -55 -22 -79 -73 -192 -82 -183 -20 20 -30 122 -39
383 -5 151 -14 311 -21 355 -17 107 -16 115 20 229 17 55 34 124 36 155 l6 56
-37 -100 c-19 -55 -42 -107 -50 -116 -12 -13 -14 -231 -14 -1462 l0 -1447
6313 0 c3473 0 6316 2 6319 5 3 3 1 25 -5 50 -8 36 -7 48 7 69 24 38 44 32 56
-16 19 -74 22 -83 32 -95 6 -7 25 -13 44 -13 l33 0 0 1505 0 1505 -24 36 c-14
20 -25 44 -25 53 -1 9 -14 32 -31 51 l-30 35 20 -48 c12 -27 21 -65 21 -84 0
-23 7 -41 18 -49 14 -10 17 -28 16 -106 -1 -83 -22 -199 -39 -216 -3 -4 -11 0
-16 8 -10 16 -6 213 6 262 6 21 4 26 -11 25 -16 -2 -20 9 -29 73 l-9 75 -8
-65 c-10 -78 -10 -83 -7 -185 2 -75 -1 -88 -47 -205 -27 -69 -54 -124 -59
-122 -6 2 -8 30 -5 70 12 157 -4 595 -20 533 -10 -41 -23 -34 -67 37 -24 37
-52 78 -63 92 l-21 25 6 -25 c4 -14 27 -64 52 -113 56 -111 67 -175 53 -310
-15 -132 -72 -408 -85 -408 -5 0 -14 23 -18 50 -7 39 -3 74 17 164 32 139 32
161 2 83 -12 -33 -28 -62 -34 -64 -7 -2 -12 -2 -12 0 0 3 -5 30 -10 61 -8 43
-7 84 5 174 19 148 18 186 -3 106 -10 -34 -20 -65 -24 -69 -10 -10 -23 27 -50
141 l-23 100 -6 -125 c-6 -123 -24 -252 -39 -279 -6 -11 -12 -7 -26 14 -15 23
-20 56 -25 160 -7 138 -14 167 -72 280 -51 98 -86 153 -87 133 0 -9 18 -74 40
-143 22 -69 45 -157 51 -194 12 -70 5 -176 -11 -186 -15 -9 -26 23 -75 205
-25 96 -55 187 -66 202 -10 15 -19 40 -20 55 0 21 -4 16 -14 -22 -8 -27 -14
-51 -15 -51 0 -1 8 -1 17 0 21 1 41 -70 42 -149 1 -27 15 -126 31 -220 16 -93
30 -187 30 -207 0 -39 -33 -128 -48 -128 -5 0 -23 34 -41 75 -27 65 -31 86
-31 166 0 51 -8 132 -17 181 -16 83 -16 93 0 171 22 105 22 107 -8 63 -14 -20
-25 -46 -25 -56 0 -22 -26 -28 -33 -7 -2 6 -6 -25 -9 -71 -4 -46 -9 -86 -12
-89 -3 -3 -12 0 -20 6 -22 18 -28 -3 -16 -49 12 -44 5 -83 -13 -77 -19 6 -37
103 -41 217 -2 58 -4 116 -5 129 -2 48 -11 12 -21 -84 -10 -92 -21 -128 -36
-112 -3 3 -25 95 -48 203 -24 109 -46 192 -50 186 -4 -7 -4 -36 -1 -66 5 -35
3 -56 -4 -60 -6 -4 -11 0 -11 9 0 38 -19 0 -30 -60 -7 -36 -19 -72 -26 -80 -8
-7 -14 -31 -14 -52 0 -21 -8 -50 -17 -63 -10 -14 -25 -38 -33 -54 -33 -64 -48
-30 -51 109 -3 131 -15 137 -22 10 -7 -105 -11 -128 -38 -182 -17 -35 -34 -63
-38 -63 -4 0 -12 37 -17 83 -7 52 -24 114 -47 172 -21 49 -37 97 -37 106 0 9
-6 19 -14 22 -10 4 -15 -12 -20 -70 -6 -74 -36 -163 -55 -163 -5 0 -28 35 -52
77 l-42 78 -8 160 c-4 88 -8 185 -9 215 -1 105 -17 27 -23 -115 -9 -196 -15
-235 -38 -235 -23 0 -23 -3 -3 -42 12 -24 15 -46 10 -87 -9 -80 -28 -161 -37
-161 -20 0 -27 49 -33 240 -3 113 -6 212 -7 220 -3 36 -18 -71 -18 -132 -1
-69 -7 -98 -22 -98 -4 0 -29 66 -55 148 -26 81 -50 150 -53 154 -3 4 -5 -89
-2 -207 2 -141 0 -215 -7 -215 -6 0 -31 89 -57 198 -26 108 -55 226 -65 262
l-18 65 6 -192 c4 -139 2 -193 -6 -193 -17 0 -32 35 -32 77 0 39 -13 72 -22
57 -3 -5 -6 -49 -7 -99 -1 -49 -5 -93 -10 -98 -5 -5 -5 -23 0 -42 10 -36 -3
-179 -23 -250 l-11 -40 -8 40 c-4 22 -9 65 -10 95 -1 30 -5 69 -9 85 -6 25 -8
19 -10 -30 -3 -93 -14 -158 -27 -162 -9 -3 -11 40 -8 179 l4 183 -14 -110
c-15 -118 -28 -165 -45 -165 -7 0 -9 -8 -5 -20 3 -11 2 -20 -4 -20 -14 0 -140
212 -147 249 -8 36 -21 41 -27 9 -3 -21 -5 -20 -21 12 l-17 35 6 -50 c22 -184
23 -219 8 -267 -8 -27 -19 -48 -24 -46 -6 2 -40 105 -75 228 -36 123 -68 227
-71 230 -6 6 -4 -9 27 -188 22 -128 23 -182 1 -127 -27 70 -32 71 -26 5 3 -36
8 -90 10 -120 l4 -55 -9 55 c-6 30 -22 132 -38 225 -24 149 -27 163 -30 113
-2 -32 -7 -58 -12 -58 -6 0 -24 27 -41 61 -16 34 -32 59 -34 58 -2 -2 10 -42
26 -89 31 -93 40 -176 15 -150 -7 8 -35 69 -61 135 -77 191 -86 210 -96 194
-5 -8 -9 -34 -9 -59 0 -50 -26 -229 -34 -237 -12 -12 -26 16 -72 142 -27 75
-50 132 -52 127 -1 -5 7 -47 19 -93 35 -139 42 -219 19 -219 -5 0 -29 29 -54
65 -66 92 -74 90 -22 -7 65 -121 79 -166 66 -223 -19 -83 -81 -265 -91 -265
-15 0 -10 67 12 152 22 90 20 111 -5 47 -10 -25 -21 -38 -26 -33 -5 5 -18 79
-30 164 -11 85 -28 192 -36 238 -9 46 -13 89 -11 96 3 7 -2 23 -9 37 -14 22
-14 19 -8 -39 5 -48 2 -68 -10 -87 -9 -13 -16 -46 -16 -72 -1 -59 -58 -218
-79 -218 -8 0 -20 16 -28 35 -12 33 -13 30 -7 -42 4 -59 2 -83 -11 -108 -28
-54 -40 -32 -41 76 0 80 -6 115 -27 179 -42 125 -59 141 -32 30 17 -70 19
-125 5 -125 -5 0 -10 1 -10 3 0 1 -31 71 -70 156 -38 84 -70 163 -70 176 0 12
-7 25 -15 29 -18 6 -18 2 -5 -43 7 -26 5 -68 -10 -164 -11 -72 -20 -132 -20
-133 0 -2 -4 -4 -10 -4 -21 0 -60 103 -104 280 -66 259 -70 257 -29 -15 21
-147 26 -218 27 -385 1 -280 -7 -303 -76 -208 -34 47 -38 58 -38 115 0 103
-30 502 -40 526 -9 22 -9 22 -10 -3 -2 -55 -28 -251 -34 -257 -3 -3 -9 -4 -12
0 -10 10 -24 81 -24 127 0 26 -4 50 -9 55 -5 6 -12 19 -15 30 -3 11 -3 -14 -1
-57 4 -73 -8 -138 -25 -138 -5 0 -29 29 -55 65 -25 36 -48 65 -50 65 -7 0 8
-46 20 -60 20 -23 65 -118 65 -135 0 -27 -17 -16 -44 28 -25 39 -26 40 -21 12
3 -16 9 -61 14 -100 13 -106 -16 -159 -38 -70 -6 25 -13 45 -16 45 -2 0 -2
-42 2 -93 4 -68 2 -100 -7 -118 -13 -23 -14 -19 -32 60 -9 46 -39 130 -64 185
-26 56 -49 118 -51 139 -3 20 -9 40 -15 43 -6 4 -7 -11 -3 -40 4 -26 3 -58 -3
-74 -6 -15 -13 -40 -17 -55 -3 -16 -11 -27 -17 -25 -16 6 -65 147 -105 306
-19 78 -38 141 -40 138 -2 -2 5 -71 17 -152 26 -185 42 -410 32 -449 l-8 -29
-12 30 c-31 80 -52 178 -53 245 0 56 -3 68 -10 51 -11 -28 -29 -20 -29 13 0
14 -9 39 -19 56 l-20 32 -5 -34 c-3 -19 -10 -90 -16 -159 -6 -69 -16 -129 -21
-134 -6 -6 -9 -6 -9 0 0 7 -12 150 -31 389 -3 41 -17 -83 -18 -162 -1 -113
-29 -126 -32 -15 l-1 47 -8 -50 c-10 -64 -37 -128 -53 -122 -6 2 -29 43 -51
90 l-39 87 27 121 c16 66 26 122 23 125 -2 2 -17 -33 -34 -78 -30 -85 -55
-110 -68 -68 -4 12 -9 20 -11 17 -2 -2 3 -23 11 -47 16 -45 15 -51 -17 -137
-22 -59 -38 -69 -38 -23 0 17 -4 30 -10 30 -5 0 -10 -10 -10 -22 0 -39 -12
-68 -26 -68 -10 0 -14 -15 -14 -57 0 -32 -5 -65 -10 -73 -9 -13 -14 -11 -31
10 -18 21 -20 33 -15 82 3 31 12 76 21 100 8 23 15 57 15 73 l-1 30 -14 -25
c-8 -14 -14 -32 -15 -41 0 -9 -7 -22 -15 -29 -8 -7 -15 -24 -15 -38 0 -28 -44
-178 -59 -202 -17 -25 -24 13 -18 93 4 57 4 63 -3 29 -17 -82 -35 -84 -43 -4
-3 31 -14 80 -23 108 l-16 51 35 89 c44 112 55 153 26 99 -42 -79 -49 -87 -65
-74 -11 9 -14 7 -14 -11 0 -34 -33 -21 -45 18 -5 17 -15 32 -22 32 -7 0 -10
-7 -7 -15 12 -31 -7 -105 -33 -129 -20 -18 -24 -30 -19 -49 7 -30 -11 -77 -30
-77 -7 0 -25 37 -39 81 -21 62 -26 92 -21 128 4 35 3 42 -5 28 -15 -25 -39 -4
-39 33 0 15 -7 33 -16 41 -14 12 -15 8 -9 -32 5 -35 3 -48 -9 -58 -9 -8 -16
-21 -16 -31 0 -19 -77 -208 -93 -228 -20 -25 -26 4 -12 58 18 66 19 110 2 68
-11 -28 -36 -38 -38 -15 0 6 -2 154 -4 327 -4 356 -17 462 -29 234z m4870
-260 c8 -64 -2 -216 -15 -224 -5 -3 -12 -20 -16 -39 -7 -31 -9 -33 -20 -17
-27 37 -27 100 1 220 15 64 31 116 35 116 4 0 11 -25 15 -56z m-9010 -62 c7
-70 -9 -259 -28 -327 -6 -22 -11 -44 -9 -49 4 -16 -42 -286 -49 -286 -21 0
-28 54 -21 157 4 59 6 160 4 223 -4 103 -1 128 26 238 16 67 33 127 37 134 13
21 32 -22 40 -90z m7140 6 c13 -25 15 -49 11 -108 -9 -124 -28 -231 -41 -227
-8 3 -10 55 -7 178 4 206 6 216 37 157z m838 -51 c6 -15 6 -30 2 -34 -10 -10
-36 26 -36 50 0 26 23 16 34 -16z m-9359 -64 c9 -43 19 -87 22 -98 4 -13 2
-17 -5 -10 -16 16 -63 157 -58 172 12 30 26 9 41 -64z m3056 -35 c19 -43 24
-69 24 -138 -1 -88 -19 -175 -35 -165 -5 3 -12 32 -16 65 -10 90 -28 75 -22
-17 7 -114 -3 -139 -36 -89 -14 23 -14 33 5 128 18 87 26 154 28 251 2 34 29
16 52 -35z m6309 -24 c0 -24 -5 -46 -10 -49 -21 -13 -42 99 -23 119 14 13 33
-28 33 -70z m-1595 29 c4 -21 11 -49 16 -63 28 -79 51 -219 45 -284 -10 -129
-42 -103 -56 46 -8 86 -20 131 -20 75 0 -14 -4 -29 -10 -32 -11 -7 -15 277 -3
288 14 15 22 6 28 -30z m2203 -13 c5 -45 -5 -80 -23 -80 -21 0 -29 43 -15 85
14 43 34 41 38 -5z m-1376 -81 c14 -57 26 -124 26 -149 0 -50 -28 -142 -46
-148 -6 -2 -18 11 -28 29 -14 28 -15 54 -9 206 5 123 11 173 19 170 6 -2 23
-50 38 -108z m-8256 68 c15 -31 14 -38 -3 -101 -10 -37 -22 -67 -28 -67 -10 1
-20 164 -11 188 9 22 26 14 42 -20z m5400 -2 c4 -23 -2 -63 -20 -127 -51 -176
-78 -258 -87 -258 -14 0 -11 25 16 118 13 48 29 119 35 157 22 140 42 181 56
110z m-6430 -83 c7 -91 2 -106 -24 -80 -13 13 -16 105 -6 157 11 53 24 21 30
-77z m4984 10 c0 -77 -11 -112 -35 -112 -18 0 -21 99 -4 151 6 19 13 41 15 49
11 32 24 -16 24 -88z m156 -4 c-8 -121 -37 -273 -51 -273 -5 0 -16 47 -24 104
l-13 105 33 70 c35 74 48 96 57 96 2 0 2 -46 -2 -102z m1522 66 c-5 -28 -28
-29 -28 -1 0 13 3 27 7 31 10 10 25 -10 21 -30z m762 -40 c0 -13 -4 -24 -10
-24 -5 0 -10 14 -10 31 0 17 4 28 10 24 6 -3 10 -17 10 -31z m4383 -58 c6 -68
-15 -172 -33 -161 -8 5 -4 164 6 213 8 40 21 15 27 -52z m-10214 16 c5 -27 7
-58 4 -70 -3 -12 0 -28 6 -36 13 -15 15 -54 6 -106 -3 -19 -11 -63 -17 -98
-18 -105 -31 -95 -82 63 -20 61 -36 119 -36 129 0 20 89 166 101 166 4 0 12
-22 18 -48z m1606 8 c11 -33 -16 -57 -29 -25 -6 17 2 45 14 45 5 0 11 -9 15
-20z m3929 4 c3 -9 6 -31 6 -50 0 -19 9 -47 20 -62 24 -34 33 -73 21 -92 -13
-19 -22 -9 -30 32 -6 25 -9 10 -15 -66 -7 -98 -33 -176 -57 -176 -14 0 -49 79
-49 111 0 23 66 295 77 312 7 12 20 8 27 -9z m4236 -19 c0 -26 -15 -41 -25
-26 -8 14 5 62 16 55 5 -3 9 -16 9 -29z m-10726 16 c13 -20 45 -256 37 -264
-6 -6 -14 8 -21 34 -6 24 -20 75 -31 112 -12 42 -18 80 -14 98 7 29 19 37 29
20z m274 -42 c6 -22 6 -54 1 -80 -4 -24 -8 -48 -9 -54 0 -5 -7 -1 -15 9 -10
13 -15 44 -15 91 0 97 17 112 38 34z m2387 -9 l6 -45 -20 24 c-21 23 -28 61
-14 75 12 11 22 -8 28 -54z m6429 -33 c37 -121 40 -149 22 -190 -25 -61 -36
-45 -36 51 -1 48 -7 116 -15 152 -17 79 -18 83 -5 75 5 -3 21 -43 34 -88z
m-5394 77 c0 -3 7 -62 15 -131 15 -122 14 -177 -6 -189 -12 -7 -48 73 -49 109
0 15 -4 27 -10 27 -13 0 -13 38 0 76 5 16 14 48 20 72 6 23 15 42 20 42 6 0
10 -3 10 -6z m6350 -24 c0 -11 -4 -20 -10 -20 -5 0 -10 9 -10 20 0 11 5 20 10
20 6 0 10 -9 10 -20z m-6202 -15 c14 -31 15 -74 2 -95 -14 -22 -21 -7 -27 59
-6 65 5 80 25 36z m4348 -27 c14 -95 6 -363 -11 -406 -20 -47 -30 -33 -39 58
-4 36 -14 96 -23 134 -15 68 -15 70 12 160 15 50 30 94 32 99 11 19 22 2 29
-45z m2414 0 c0 -16 -4 -28 -10 -28 -5 0 -10 19 -10 43 0 31 3 38 10 27 5 -8
10 -27 10 -42z m-7250 -53 c0 -95 -24 -179 -40 -140 -5 11 -9 40 -9 64 -1 50
27 161 40 161 5 0 9 -38 9 -85z m2488 33 c11 -55 1 -88 -18 -58 -12 19 -13
110 -1 110 4 0 13 -24 19 -52z m4423 19 c-8 -8 -11 -7 -11 4 0 20 13 34 18 19
3 -7 -1 -17 -7 -23z m-3146 -59 c21 -72 26 -211 8 -229 -9 -9 -17 -1 -34 32
-21 39 -23 56 -21 148 4 145 16 157 47 49z m-7525 0 c25 -53 30 -76 30 -138 0
-99 -7 -122 -34 -118 -19 3 -22 11 -27 103 -4 55 -10 126 -14 158 -10 77 7 75
45 -5z m6420 38 c0 -31 -10 -56 -21 -56 -10 0 -12 40 -3 64 9 24 24 19 24 -8z
m787 -28 c-3 -7 -5 -2 -5 12 0 14 2 19 5 13 2 -7 2 -19 0 -25z m-6937 -7 c0
-16 -7 -34 -15 -41 -13 -11 -15 -7 -15 29 0 30 4 41 15 41 10 0 15 -10 15 -29z
m11205 -45 c6 -46 -15 -142 -30 -139 -11 3 -19 155 -10 193 6 24 7 24 20 6 8
-10 17 -37 20 -60z m-11101 48 c9 -23 7 -64 -2 -64 -15 0 -32 24 -32 45 0 35
23 48 34 19z m10387 -67 c-13 -13 -15 31 -3 60 5 14 8 10 10 -16 2 -18 -1 -38
-7 -44z m-5431 38 c0 -8 -4 -15 -10 -15 -5 0 -10 7 -10 15 0 8 5 15 10 15 6 0
10 -7 10 -15z m1697 -17 c-3 -8 -6 -5 -6 6 -1 11 2 17 5 13 3 -3 4 -12 1 -19z
m-6084 -21 c6 -18 4 -35 -5 -53 -22 -46 -38 -41 -38 9 0 78 23 102 43 44z
m2092 -29 c8 -29 18 -69 21 -88 5 -38 -9 -71 -24 -55 -11 11 -32 125 -32 168
0 44 18 31 35 -25z m4715 42 c0 -5 -4 -10 -10 -10 -5 0 -10 5 -10 10 0 6 5 10
10 10 6 0 10 -4 10 -10z m-5610 -5 c0 -2 13 -67 30 -144 18 -85 27 -152 24
-171 -4 -17 -8 -29 -10 -27 -2 2 -22 70 -44 152 -41 147 -44 195 -15 195 8 0
15 -2 15 -5z m1895 -64 c-3 -17 -11 -33 -16 -36 -10 -7 -12 45 -3 70 11 28 27
0 19 -34z m6265 21 c0 -27 -15 -52 -32 -52 -4 0 -6 6 -4 13 3 6 7 24 10 40 8
35 26 35 26 -1z m-5560 3 c0 -8 -4 -15 -10 -15 -5 0 -10 7 -10 15 0 8 5 15 10
15 6 0 10 -7 10 -15z m-4394 -37 c19 -37 26 -90 27 -198 1 -79 -19 -190 -33
-190 -5 0 -14 15 -20 34 -8 26 -18 36 -40 41 -27 6 -28 10 -35 73 -5 58 -2 78
23 152 49 140 50 142 78 88z m5440 -50 c-17 -59 -50 -118 -66 -118 -27 0 4 96
59 179 23 36 27 5 7 -61z m3614 27 c0 -55 -13 -73 -25 -34 -9 26 3 89 15 89 6
0 10 -25 10 -55z m-3445 -42 c-21 -43 -39 -73 -42 -66 -5 13 66 158 73 150 3
-3 -11 -40 -31 -84z m-3035 -39 c0 -59 -4 -85 -14 -93 -12 -10 -17 -8 -27 10
-23 44 7 217 32 178 5 -8 9 -51 9 -95z m520 66 c24 -47 25 -71 4 -136 -41
-127 -48 -127 -59 -2 -7 78 7 178 26 178 5 0 18 -18 29 -40z m3189 -81 c-6
-16 -16 -29 -21 -29 -10 0 -5 35 15 105 l12 40 3 -44 c2 -24 -2 -57 -9 -72z
m-3379 81 c0 -28 -21 -70 -36 -70 -22 0 -24 32 -3 61 24 34 39 37 39 9z m826
-35 c20 -48 18 -98 -7 -156 -32 -74 -43 -63 -35 39 7 95 16 152 23 152 2 0 11
-16 19 -35z m2199 26 c3 -5 1 -12 -5 -16 -5 -3 -10 1 -10 9 0 18 6 21 15 7z
m-850 -31 c0 -13 -6 -25 -12 -27 -9 -3 -13 6 -13 27 0 21 4 30 13 28 6 -3 12
-15 12 -28z m-4226 -88 c25 -96 36 -218 23 -252 l-11 -25 0 26 c-1 15 -14 79
-31 142 -32 125 -41 237 -16 204 8 -10 23 -53 35 -95z m6070 -17 c11 -89 11
-90 -19 -150 l-30 -60 5 115 c10 220 25 253 44 95z m701 43 c29 -51 36 -89 24
-122 -10 -27 -21 -18 -48 36 -30 60 -35 138 -10 138 2 0 17 -24 34 -52z m505
5 l-7 -28 -9 24 c-12 31 -3 59 13 43 6 -6 8 -22 3 -39z m-4744 -16 c-13 -13
-15 1 -4 30 7 17 8 17 11 -1 2 -10 -1 -23 -7 -29z m3277 -63 c10 -82 -1 -194
-19 -194 -20 0 -29 40 -19 82 5 24 10 81 10 128 0 105 16 97 28 -16z m2112 41
c0 -29 -16 -41 -24 -19 -8 21 3 56 15 49 5 -4 9 -17 9 -30z m-2920 -56 c0 -71
-13 -115 -31 -104 -12 8 -12 131 1 156 20 36 30 19 30 -52z m-5430 2 c0 -21
-6 -44 -14 -50 -16 -13 -29 -1 -22 21 2 7 7 25 10 41 9 40 26 33 26 -12z
m11310 -8 c-15 -50 -22 -63 -36 -63 -14 0 -8 25 16 71 16 29 30 23 20 -8z
m-7490 -20 c0 -20 -3 -24 -11 -16 -7 7 -9 19 -6 27 10 24 17 19 17 -11z m4962
0 c-3 -16 -7 -22 -10 -15 -4 13 4 42 11 42 2 0 2 -12 -1 -27z m-9852 -13 c0
-16 -4 -30 -10 -30 -11 0 -14 43 -3 53 11 12 13 8 13 -23z m2814 -54 c-12 -30
-24 -16 -24 27 l1 42 14 -27 c8 -15 12 -34 9 -42z m4217 8 c-7 -31 -9 -34 -10
-12 -1 27 9 62 15 55 3 -2 0 -22 -5 -43z m954 14 c-7 -33 -25 -62 -25 -41 0
15 21 73 27 73 2 0 2 -15 -2 -32z m-4356 -145 c0 -36 -2 -43 -9 -27 -7 18 -3
74 6 74 2 0 4 -21 3 -47z m-3050 -28 c0 -5 -4 -3 -9 5 -5 8 -9 22 -9 30 0 16
17 -16 18 -35z m-851 -591 c23 -29 42 -57 42 -64 0 -14 -60 -103 -66 -97 -5 5
-34 190 -34 216 0 9 3 11 8 6 5 -6 27 -33 50 -61z m12592 -99 c9 -10 11 -48 9
-129 -5 -139 -18 -166 -41 -79 -18 72 -20 93 -13 158 7 66 20 81 45 50z m-148
-261 c7 -7 -20 -126 -31 -137 -8 -8 -41 72 -41 99 0 29 54 57 72 38z m110 -69
c1 -22 -1 -42 -7 -45 -14 -8 -29 43 -21 75 9 36 23 21 28 -30z m-12549 6 c19
-8 27 -19 32 -53 3 -24 13 -71 22 -106 14 -58 13 -66 -3 -112 -10 -28 -23 -50
-30 -50 -23 0 -105 145 -106 188 -1 40 34 142 48 142 7 0 24 -4 37 -9z m143
-373 c14 -27 16 -50 10 -138 -4 -58 -13 -138 -20 -179 -12 -68 -11 -75 6 -90
14 -13 17 -26 12 -50 -11 -54 -21 -44 -39 37 -10 42 -28 107 -41 143 -13 37
-24 73 -24 81 0 7 23 36 50 63 28 27 50 55 50 61 0 7 -12 21 -26 31 -21 15
-24 24 -19 46 9 36 21 34 41 -5z"/>
<path d="M9631 4594 c0 -11 3 -14 6 -6 3 7 2 16 -1 19 -3 4 -6 -2 -5 -13z"/>
<path d="M4211 4554 c0 -11 3 -14 6 -6 3 7 2 16 -1 19 -3 4 -6 -2 -5 -13z"/>
<path d="M12660 4503 c0 -12 7 -23 15 -27 13 -5 14 -2 4 17 -17 32 -19 33 -19
10z"/>
<path d="M11781 4454 c0 -11 3 -14 6 -6 3 7 2 16 -1 19 -3 4 -6 -2 -5 -13z"/>
<path d="M4110 4440 c0 -5 5 -10 11 -10 5 0 7 5 4 10 -3 6 -8 10 -11 10 -2 0
-4 -4 -4 -10z"/>
<path d="M8341 4250 c0 -8 4 -22 9 -30 12 -18 12 -2 0 25 -6 13 -9 15 -9 5z"/>
</g>
</svg>
